<svg xmlns="http://www.w3.org/2000/svg" viewBox="0 0 32 32" width="32" height="32">
  <rect width="32" height="32" fill="hsl(353, 100%, 58%)"/>
  <path fill="#111111" d="M 4.1621094,28 V 3.9375 h 6.6171876 q 2.597656,0 3.910156,1.4492187 1.3125,1.4355469 1.3125,4.2109376 V 20.863281 q 0,3.417969 -1.203125,5.277344 Q 13.609375,28 10.615234,28 Z m 4.8398437,-4.251953 h 0.8339844 q 1.3261715,0 1.3261715,-1.285156 V 10.048828 q 0,-1.2031249 -0.328125,-1.5449217 Q 10.519531,8.1484375 9.5351563,8.1484375 H 9.0019531 Z"/>
  <path fill="#f0f0f0" d="m 21.870117,28.21875 q -1.626953,0 -2.966797,-0.628906 -1.339843,-0.628907 -2.132812,-1.859375 -0.779297,-1.244141 -0.779297,-3.048828 v -6.029297 h 4.757812 v 5.742187 q 0,0.628906 0.246094,1.011719 0.259766,0.382812 0.820313,0.382812 1.080078,0 1.080078,-1.326171 V 3.9375 h 4.853515 v 18.046875 q 0,1.914062 -0.751953,3.322266 -0.751953,1.394531 -2.078125,2.160156 -1.326172,0.751953 -3.048828,0.751953 z"/>
</svg>
